<svg xmlns="http://www.w3.org/2000/svg" width="30" height="30" viewBox="0 0 512 512"><path d="M452.656 499.209c-7.881 0-14.269-6.39-14.269-14.269V234.027l-32.225 30.763c-5.701 5.442-14.732 5.233-20.176-.468-5.441-5.701-5.233-14.733.468-20.175l56.347-53.791a14.265 14.265 0 0 1 15.467-2.797 14.267 14.267 0 0 1 8.656 13.118V484.94c.001 7.879-6.387 14.269-14.268 14.269z" style="fill:#ffc61b"/><path d="M338.188 309.953a12.943 12.943 0 0 1-9.302 3.584 12.974 12.974 0 0 1-9.097-4.075l-51.775-54.994-21.981 22.543V484.94h103.312V299.302l-11.157 10.651zM121.207 318.315l-83.592 85.824v80.801h103.312V340.529z" style="fill:#fee187"/><path d="M396.309 470.671h-32.695V299.302a14.507 14.507 0 0 0-.208-2.343 14.048 14.048 0 0 0-.394-1.747c-.007-.023-.011-.047-.019-.07a14.229 14.229 0 0 0-.676-1.759c-.051-.114-.107-.225-.163-.338a14.263 14.263 0 0 0-.833-1.485c-.033-.05-.06-.103-.093-.153a14.376 14.376 0 0 0-1.107-1.441c-.098-.113-.2-.221-.301-.332a14.18 14.18 0 0 0-1.16-1.127c-.061-.053-.118-.111-.181-.164a14.652 14.652 0 0 0-1.49-1.077c-.116-.073-.233-.143-.35-.213a14.146 14.146 0 0 0-1.681-.872 13.808 13.808 0 0 0-2.212-.723 14.195 14.195 0 0 0-1.714-.317c-.054-.006-.108-.019-.163-.024a14.507 14.507 0 0 0-1.525-.084c-.104 0-.205.013-.31.016-.161.003-.321.016-.481.024-.511.029-1.015.081-1.51.163-.116.019-.23.031-.345.053a14.23 14.23 0 0 0-1.804.462c-.086.029-.168.063-.253.093-.522.183-1.029.395-1.521.635-.107.051-.215.1-.322.156-.548.284-1.076.598-1.58.949-.093.064-.181.137-.274.204-.44.321-.86.668-1.26 1.036-.061.057-.133.101-.194.16l-10.208 9.747-50.879-54.041a14.28 14.28 0 0 0-10.264-4.489c-3.843-.016-7.626 1.523-10.341 4.308l-21.981 22.543a14.58 14.58 0 0 0-.866.98 14.52 14.52 0 0 0-.972.906l-54.225 56.092c-5.478 5.666-5.325 14.699.341 20.177s14.702 5.325 20.177-.341l29.697-30.718v156.528h-74.773v-130.14c0-.461-.026-.92-.07-1.374-.019-.194-.053-.382-.078-.574-.036-.254-.067-.508-.116-.759-.044-.231-.103-.458-.158-.685-.05-.205-.098-.41-.157-.612-.07-.238-.15-.471-.231-.703-.066-.187-.131-.374-.204-.558-.091-.228-.19-.452-.293-.675a14.213 14.213 0 0 0-.938-1.723 14.42 14.42 0 0 0-.37-.554 14.492 14.492 0 0 0-.414-.554c-.13-.167-.261-.332-.398-.492-.059-.068-.11-.141-.168-.208l-19.719-22.215a14.27 14.27 0 0 0-10.341-4.792c-3.974-.113-7.787 1.47-10.552 4.309L27.4 394.188a14.265 14.265 0 0 0-4.047 9.957v80.8c0 7.88 6.388 14.269 14.269 14.269h206.622c.303 0 .599-.027.898-.046.298.019.595.046.898.046h150.277c7.881 0 14.269-6.39 14.269-14.269-.001-7.879-6.396-14.274-14.277-14.274zM51.884 409.94l68.837-70.676 5.935 6.687v124.72H51.884V409.94zm208.418-127.125 7.531-7.723 41.567 44.151c4.94 5.247 11.904 8.365 19.078 8.556 2.24.057 4.455-.148 6.597-.615v143.484h-74.773V282.815z" style="fill:#ffc61b"/><path d="m407.582 51.21 90.147-24.155-24.154 90.148z" style="fill:#fee187"/><path d="M507.82 16.965a14.273 14.273 0 0 0-13.784-3.693l-90.147 24.155a14.27 14.27 0 0 0-6.397 23.873l23.831 23.831-91.555 87.464-51.201-54.382a14.28 14.28 0 0 0-10.264-4.489c-3.878-.006-7.626 1.523-10.341 4.308l-95.528 97.966-30.114-33.924a14.27 14.27 0 0 0-10.341-4.792 14.2 14.2 0 0 0-10.552 4.309L4.048 291.838c-5.499 5.645-5.38 14.679.265 20.178a14.214 14.214 0 0 0 9.956 4.048c3.716 0 7.427-1.443 10.224-4.312l96.672-99.254 30.11 33.92a14.266 14.266 0 0 0 10.337 4.792 14.213 14.213 0 0 0 10.551-4.304L268 148.622l50.846 54.005a14.273 14.273 0 0 0 10.011 4.483c3.766.118 7.484-1.318 10.234-3.947l102.419-97.845 21.976 21.976a14.276 14.276 0 0 0 13.783 3.693 14.272 14.272 0 0 0 10.09-10.09l24.155-90.147a14.276 14.276 0 0 0-3.694-13.785zm-41.631 72.671L435.15 58.598l42.4-11.361-11.361 42.399z" style="fill:#ffc61b"/></svg>