<svg xmlns="http://www.w3.org/2000/svg" width="30" height="30" viewBox="0 0 512 512"><path d="M14.183 471.406C6.35 471.406 0 465.055 0 457.223V174.677a14.183 14.183 0 0 1 23.976-10.259l56.006 53.466c5.666 5.408 5.875 14.387.465 20.054-5.408 5.665-14.386 5.875-20.052.465l-32.03-30.577v249.398c.001 7.831-6.349 14.182-14.182 14.182z" style="fill:#ffc61b"/><path d="M127.957 283.293a12.869 12.869 0 0 0 9.246 3.563 12.888 12.888 0 0 0 9.042-4.051l51.462-54.662 21.848 22.407v206.672H116.87V272.708l11.087 10.585zM343.628 291.605l83.087 85.305v80.313H324.028V313.686z" style="fill:#fee187"/><path d="m436.875 367.013-83.086-85.305c-2.749-2.821-6.527-4.402-10.49-4.283a14.186 14.186 0 0 0-10.279 4.763l-19.6 22.08c-.06.067-.111.14-.169.208-.136.159-.265.322-.394.488-.142.182-.279.363-.411.55a16.7 16.7 0 0 0-.7 1.098 13.052 13.052 0 0 0-.597 1.157c-.104.225-.204.452-.296.685-.071.177-.133.357-.197.538a12.74 12.74 0 0 0-.235.716c-.057.194-.104.391-.152.589-.057.231-.116.461-.162.698-.047.245-.078.492-.113.74-.027.194-.061.386-.081.582-.044.452-.07.908-.07 1.364v129.354h-74.32V287.457l29.518 30.532c5.445 5.632 14.423 5.784 20.055.339 5.632-5.445 5.784-14.423.339-20.055l-53.897-55.753a13.72 13.72 0 0 0-.969-.903 13.8 13.8 0 0 0-.858-.97l-21.848-22.407a14.184 14.184 0 0 0-10.155-4.282h-.123a14.173 14.173 0 0 0-10.202 4.462l-50.571 53.716-10.147-9.687c-.061-.058-.13-.102-.191-.157a14.616 14.616 0 0 0-1.255-1.033c-.089-.065-.176-.136-.267-.2a14.194 14.194 0 0 0-1.574-.945c-.104-.054-.21-.101-.315-.152-.491-.24-.997-.451-1.518-.634-.084-.03-.165-.064-.25-.091a14.06 14.06 0 0 0-1.793-.46c-.115-.023-.231-.034-.347-.054a14.377 14.377 0 0 0-1.493-.16c-.162-.009-.322-.021-.485-.024-.102-.001-.201-.016-.305-.016-.512 0-1.018.03-1.516.084-.057.006-.112.018-.167.026a14.23 14.23 0 0 0-1.702.315c-.125.031-.248.061-.372.095-1.245.342-2.42.848-3.503 1.496-.111.067-.221.132-.33.201-.519.33-1.021.685-1.492 1.078-.058.048-.111.102-.167.152-.411.355-.797.735-1.164 1.132-.099.108-.2.214-.295.325-.396.455-.767.93-1.102 1.435-.033.048-.06.101-.091.149-.306.474-.58.969-.83 1.479-.054.112-.109.221-.162.335a14.067 14.067 0 0 0-.672 1.749c-.007.023-.011.045-.017.068a13.871 13.871 0 0 0-.391 1.736 14.302 14.302 0 0 0-.207 2.329V443.04H70.19c-7.833 0-14.183 6.351-14.183 14.183s6.35 14.183 14.183 14.183H219.557c.301 0 .596-.027.892-.045.296.018.591.045.892.045h205.372c7.832 0 14.183-6.351 14.183-14.183V376.91a14.18 14.18 0 0 0-4.021-9.897zM205.373 443.04h-74.32V300.422c1.882.411 3.818.621 5.784.621h.007c.255 0 .511-.004.738-.011 7.161-.19 14.084-3.29 18.991-8.506l41.315-43.883 7.486 7.676V443.04h-.001zm207.158 0h-74.32V319.072l5.899-6.646 68.421 70.249v60.365z" style="fill:#ffc61b"/><path d="m408.215 298.51 89.602 24.009-24.009-89.602z" style="fill:#fee187"/><path d="m511.516 318.847-24.009-89.602a14.183 14.183 0 0 0-23.728-6.358l-22.947 22.947-87.482-90.125a14.202 14.202 0 0 0-10.488-4.283 14.188 14.188 0 0 0-10.279 4.763l-29.932 33.719-94.95-97.374c-2.699-2.767-6.414-4.275-10.28-4.282a14.18 14.18 0 0 0-10.202 4.462l-50.892 54.055L29.3 44.521c-5.663-5.409-14.641-5.205-20.052.457-5.411 5.664-5.207 14.642.458 20.053l117.357 112.118c2.733 2.613 6.404 4.048 10.172 3.923a14.175 14.175 0 0 0 9.951-4.456l50.539-53.68 95.26 97.691c2.749 2.82 6.543 4.344 10.487 4.278a14.177 14.177 0 0 0 10.274-4.763l29.928-33.715 77.1 79.467-22.587 22.587a14.181 14.181 0 0 0 6.358 23.728l89.602 24.009a14.177 14.177 0 0 0 13.699-3.67 14.182 14.182 0 0 0 3.67-13.701zm-75.901-27.68 30.851-30.851 11.293 42.144-42.144-11.293z" style="fill:#ffc61b"/></svg>