<svg xmlns="http://www.w3.org/2000/svg" viewBox="0 40.59 512 430.81">
    <path style="fill:#ffc500;" d="M14.183,471.406C6.35,471.406,0,465.055,0,457.223V174.677c0-5.678,3.386-10.806,8.603-13.039 c5.219-2.235,11.267-1.14,15.373,2.78l56.006,53.466c5.666,5.408,5.875,14.387,0.465,20.054c-5.408,5.665-14.386,5.875-20.052,0.465 l-32.03-30.577v249.398C28.366,465.055,22.016,471.406,14.183,471.406z"></path>
    <path style="fill:#ffe059;" d="M127.957,283.293c2.483,2.371,5.814,3.661,9.246,3.563c3.434-0.092,6.689-1.55,9.042-4.051 l51.462-54.662l21.848,22.407v206.672H116.87V272.708L127.957,283.293z"></path>
    <polygon style="fill:#ffe059;" points="343.628,291.605 426.715,376.91 426.715,457.223 324.028,457.223 324.028,313.686"></polygon>
    <path style="fill:#ffc500;" d="M436.875,367.013l-83.086-85.305c-2.749-2.821-6.527-4.402-10.49-4.283 c-3.939,0.091-7.663,1.817-10.279,4.763l-19.6,22.08c-0.06,0.067-0.111,0.14-0.169,0.208c-0.136,0.159-0.265,0.322-0.394,0.488 c-0.142,0.182-0.279,0.363-0.411,0.55c-0.128,0.182-0.251,0.367-0.37,0.555c-0.113,0.179-0.224,0.36-0.33,0.543 c-0.119,0.206-0.233,0.414-0.34,0.625c-0.089,0.176-0.174,0.353-0.257,0.532c-0.104,0.225-0.204,0.452-0.296,0.685 c-0.071,0.177-0.133,0.357-0.197,0.538c-0.084,0.237-0.165,0.474-0.235,0.716c-0.057,0.194-0.104,0.391-0.152,0.589 c-0.057,0.231-0.116,0.461-0.162,0.698c-0.047,0.245-0.078,0.492-0.113,0.74c-0.027,0.194-0.061,0.386-0.081,0.582 c-0.044,0.452-0.07,0.908-0.07,1.364v129.354h-74.32V287.457l29.518,30.532c5.445,5.632,14.423,5.784,20.055,0.339 c5.632-5.445,5.784-14.423,0.339-20.055l-53.897-55.753c-0.309-0.321-0.635-0.617-0.969-0.903c-0.271-0.335-0.555-0.66-0.858-0.97 l-21.848-22.407c-2.671-2.739-6.333-4.282-10.155-4.282c-0.041,0-0.084,0-0.123,0c-3.868,0.034-7.553,1.645-10.202,4.462 l-50.571,53.716l-10.147-9.687c-0.061-0.058-0.13-0.102-0.191-0.157c-0.399-0.367-0.817-0.712-1.255-1.033 c-0.089-0.065-0.176-0.136-0.267-0.2c-0.502-0.349-1.028-0.662-1.574-0.945c-0.104-0.054-0.21-0.101-0.315-0.152 c-0.491-0.24-0.997-0.451-1.518-0.634c-0.084-0.03-0.165-0.064-0.25-0.091c-0.582-0.191-1.18-0.345-1.793-0.46 c-0.115-0.023-0.231-0.034-0.347-0.054c-0.491-0.079-0.987-0.132-1.493-0.16c-0.162-0.009-0.322-0.021-0.485-0.024 c-0.102-0.001-0.201-0.016-0.305-0.016c-0.512,0-1.018,0.03-1.516,0.084c-0.057,0.006-0.112,0.018-0.167,0.026 c-0.58,0.069-1.146,0.179-1.702,0.315c-0.125,0.031-0.248,0.061-0.372,0.095c-1.245,0.342-2.42,0.848-3.503,1.496 c-0.111,0.067-0.221,0.132-0.33,0.201c-0.519,0.33-1.021,0.685-1.492,1.078c-0.058,0.048-0.111,0.102-0.167,0.152 c-0.411,0.355-0.797,0.735-1.164,1.132c-0.099,0.108-0.2,0.214-0.295,0.325c-0.396,0.455-0.767,0.93-1.102,1.435 c-0.033,0.048-0.06,0.101-0.091,0.149c-0.306,0.474-0.58,0.969-0.83,1.479c-0.054,0.112-0.109,0.221-0.162,0.335 c-0.258,0.566-0.489,1.146-0.672,1.749c-0.007,0.023-0.011,0.045-0.017,0.068c-0.169,0.563-0.294,1.146-0.391,1.736 c-0.024,0.148-0.047,0.292-0.067,0.441c-0.082,0.618-0.14,1.245-0.14,1.888V443.04H70.19c-7.833,0-14.183,6.351-14.183,14.183 s6.35,14.183,14.183,14.183h46.681h102.686c0.301,0,0.596-0.027,0.892-0.045c0.296,0.018,0.591,0.045,0.892,0.045h102.686h102.686 c7.832,0,14.183-6.351,14.183-14.183V376.91C440.897,373.214,439.455,369.662,436.875,367.013z M205.373,443.04h-74.32V300.422 c1.882,0.411,3.818,0.621,5.784,0.621c0.003,0,0.004,0,0.007,0c0.255,0,0.511-0.004,0.738-0.011 c7.161-0.19,14.084-3.29,18.991-8.506l41.315-43.883l7.486,7.676V443.04H205.373z M412.531,443.04h-74.32V319.072l5.899-6.646 l68.421,70.249V443.04z"></path>
    <polygon style="fill:#ffe059;" points="408.215,298.51 497.817,322.519 473.808,232.917 "></polygon>
    <path style="fill:#ffc500;" d="M511.516,318.847l-24.009-89.602c-1.312-4.895-5.134-8.717-10.029-10.029 c-4.896-1.315-10.117,0.089-13.699,3.671l-22.947,22.947l-87.482-90.125c-2.749-2.822-6.55-4.37-10.488-4.283 c-3.939,0.091-7.662,1.817-10.279,4.763l-29.932,33.719l-94.95-97.374c-2.699-2.767-6.414-4.275-10.28-4.282 c-3.866,0.034-7.551,1.645-10.202,4.462l-50.892,54.055L29.3,44.521c-5.663-5.409-14.641-5.205-20.052,0.457 C3.837,50.642,4.041,59.62,9.706,65.031l117.357,112.118c2.733,2.613,6.404,4.048,10.172,3.923c3.778-0.099,7.36-1.703,9.951-4.456 l50.539-53.68l95.26,97.691c2.749,2.82,6.543,4.344,10.487,4.278c3.937-0.091,7.659-1.817,10.274-4.763l29.928-33.715l77.1,79.467 l-22.587,22.587c-3.583,3.583-4.983,8.806-3.671,13.699c1.312,4.895,5.134,8.717,10.029,10.029l89.602,24.009 c1.213,0.325,2.447,0.484,3.669,0.484c3.713,0,7.336-1.459,10.03-4.154C511.43,328.964,512.828,323.742,511.516,318.847z M435.615,291.167l30.851-30.851l11.293,42.144L435.615,291.167z"></path>
</svg>