<svg xmlns="http://www.w3.org/2000/svg" width="30" height="30" class="modalIcon" viewBox="0 0 2050 2050"><g data-name="Layer 3"><circle cx="1025" cy="1025" r="613.7" fill="#ffc500"/><path fill="#ff9f1e" d="M1068.5 1551.8c-339 0-613.7-274.8-613.7-613.7a613.5 613.5 0 0 1 44.4-229.8 610.7 610.7 0 0 0-87.9 316.7c0 338.9 274.8 613.7 613.7 613.7 257.7 0 478.3-158.8 569.2-383.9-107.4 178-302.7 297-525.7 297Z"/><ellipse cx="773.9" cy="896.3" fill="#00305f" rx="94.9" ry="60.2" transform="rotate(-87.5 774.176 896.36)"/><circle cx="803.6" cy="857.7" r="16.6" fill="#00305f"/><ellipse cx="1276.1" cy="896.3" fill="#00305f" rx="60.2" ry="94.9" transform="rotate(-2.5 1266.663 891.933)"/><circle cx="1296.4" cy="857.7" r="16.6" fill="#00305f"/><path fill="#ffe059" d="M1025 411.3a610.4 610.4 0 0 0-365.1 120.4 706.9 706.9 0 0 1 453.2-18.9 27.8 27.8 0 0 0-3.3 5.1c-18.2 33.9 18.9 89.1 82.7 123.3s130.4 34.6 148.6.8a38.6 38.6 0 0 0 3.7-10.5c165.2 128 271.9 328.1 272.9 553.1a613.3 613.3 0 0 0 21-159.6c0-338.9-274.8-613.7-613.7-613.7Z"/><ellipse cx="1339.4" cy="698.8" fill="#ffe059" rx="30.8" ry="52.8" transform="rotate(-79 1338.458 699.01)"/><ellipse cx="1235.1" cy="718.7" fill="#ffe059" rx="17.2" ry="25" transform="rotate(-60 1235.1 718.744)"/><path fill="#00305f" d="M1296.4 1314.5a29.7 29.7 0 0 1-23-10.7c-32.3-38.4-70-68.5-112-89.5s-88.8-32.4-136-32.4c-91.6 0-178.2 41.6-243.9 117.1a30 30 0 0 1-45.3-39.4c37.5-43 81-76.8 129.5-100.5a361.4 361.4 0 0 1 322.6 1.6c49.3 24.7 93.4 59.8 131 104.5a29.9 29.9 0 0 1-22.9 49.3Z"/></g></svg>