<svg xmlns="http://www.w3.org/2000/svg" width="50" height="50" viewBox="0 0 2050 2050"><g data-name="Layer 3"><circle cx="1025" cy="1025" r="613.7" fill="#ffc500"/><path fill="#ff9f1e" d="M1068.5 1551.8c-339 0-613.7-274.8-613.7-613.7a613.5 613.5 0 0 1 44.4-229.8 610.7 610.7 0 0 0-87.9 316.7c0 338.9 274.8 613.7 613.7 613.7 257.7 0 478.3-158.8 569.2-383.9-107.4 178-302.7 297-525.7 297Z"/><path fill="#ffe059" d="M1025 411.3a610.4 610.4 0 0 0-365.1 120.4 706.9 706.9 0 0 1 453.2-18.9 27.8 27.8 0 0 0-3.3 5.1c-18.2 33.9 18.9 89.1 82.7 123.3s130.4 34.6 148.6.8a38.6 38.6 0 0 0 3.7-10.5c165.2 128 271.9 328.1 272.9 553.1a613.3 613.3 0 0 0 21-159.6c0-338.9-274.8-613.7-613.7-613.7Z"/><ellipse cx="1339.4" cy="698.8" fill="#ffe059" rx="30.8" ry="52.8" transform="rotate(-79 1338.458 699.01)"/><ellipse cx="1235.1" cy="718.7" fill="#ffe059" rx="17.2" ry="25" transform="rotate(-60 1235.1 718.744)"/><path fill="#00305f" d="M1146.1 883.2a30.6 30.6 0 0 1-13.7-3.2 30 30 0 0 1-13-40.4c26.2-51.3 63.4-79.5 104.7-79.5s78.5 28.2 104.7 79.5a30 30 0 1 1-53.4 27.3c-15-29.3-34.2-46.8-51.3-46.8s-36.3 17.5-51.3 46.8a29.9 29.9 0 0 1-26.7 16.3ZM903.9 883.2a29.9 29.9 0 0 1-26.7-16.3c-15-29.3-34.2-46.8-51.3-46.8s-36.3 17.5-51.3 46.8a30 30 0 1 1-53.4-27.3c26.2-51.3 63.4-79.5 104.7-79.5s78.5 28.2 104.7 79.5a30 30 0 0 1-13 40.4 30.6 30.6 0 0 1-13.7 3.2ZM863.1 1280.8a29.4 29.4 0 0 1-15.8-4.5 29.9 29.9 0 0 1-9.6-41.3 89.9 89.9 0 0 0 13.4-47.4 88.9 88.9 0 0 0-16.9-52.5 30 30 0 0 1 48.6-35.2 150.2 150.2 0 0 1 5.8 166.8 30.1 30.1 0 0 1-25.5 14.1ZM1186.9 1280.8a30.1 30.1 0 0 1-25.5-14.1 150.2 150.2 0 0 1 5.8-166.8 30 30 0 1 1 48.6 35.2 88.9 88.9 0 0 0-16.9 52.5 89.9 89.9 0 0 0 13.4 47.4 29.9 29.9 0 0 1-9.6 41.3 29.4 29.4 0 0 1-15.8 4.5Z"/><path fill="#00305f" d="M1025 1247.3a293.2 293.2 0 0 1-135.5-33.1 30 30 0 1 1 27.6-53.2 234.3 234.3 0 0 0 215.8 0c46.2-19.3 34.3 19.6 27.6 53.2a293.2 293.2 0 0 1-135.5 33.1Z"/></g></svg>